/* XPM */
static char *getxbook[] = {
/* columns rows colors chars-per-pixel */
"32 32 150 2",
"   c #00793E",
".  c #0B7F46",
"X  c #254A62",
"o  c #294D65",
"O  c #234E69",
"+  c #25506B",
"@  c #2E5269",
"#  c #31546B",
"$  c #36596E",
"%  c #426377",
"&  c #436378",
"*  c #9E0000",
"=  c #A40403",
"-  c #A70906",
";  c #A80C09",
":  c #BD0202",
">  c #BF0A07",
",  c #AB1511",
"<  c #AD1A16",
"1  c #AA1B1B",
"2  c #AA1F20",
"3  c #AF2524",
"4  c #AF2D2D",
"5  c #B02524",
"6  c #B42925",
"7  c #B12D2D",
"8  c #B43130",
"9  c #BB3E3C",
"0  c #C00503",
"q  c #C30907",
"w  c #C40E0A",
"e  c #C6120D",
"r  c #C8160F",
"t  c #C51610",
"y  c #C91711",
"u  c #C71B13",
"i  c #CA1C14",
"p  c #CC2017",
"a  c #CE241A",
"s  c #CC281D",
"d  c #D0271C",
"f  c #D1291E",
"g  c #CF2C20",
"h  c #D22D21",
"j  c #D43325",
"k  c #D73728",
"l  c #D6392A",
"z  c #D93C2C",
"x  c #D5402E",
"c  c #DA402F",
"v  c #D74532",
"b  c #DC4432",
"n  c #DC4A36",
"m  c #DD4F39",
"M  c #E04D37",
"N  c #E04E38",
"B  c #E2533C",
"V  c #E65B42",
"C  c #E85F45",
"Z  c #E96246",
"A  c #EB6649",
"S  c #EB684B",
"D  c #E56B57",
"F  c #C97271",
"G  c #EF7F66",
"H  c #F07B63",
"J  c #0A813F",
"K  c #0D8240",
"L  c #0D8048",
"P  c #11834A",
"I  c #19884A",
"U  c #3DAA44",
"Y  c #42AC46",
"T  c #48AF49",
"R  c #4CB14B",
"E  c #51B24F",
"W  c #53B350",
"Q  c #6DC46A",
"!  c #73C66E",
"~  c #7BC972",
"^  c #EF8067",
"/  c #F08168",
"(  c #82CC76",
")  c #85CD78",
"_  c #0A7AB3",
"`  c #0C7FBA",
"'  c #0D81BD",
"]  c #738D99",
"[  c #0E85C3",
"{  c #118ACB",
"}  c #138FD2",
"|  c #1194D4",
" . c #1C93D5",
".. c #1197D9",
"X. c #139BDE",
"o. c #2496D5",
"O. c #2798D5",
"+. c #2C99D5",
"@. c #169EE3",
"#. c #17A3EA",
"$. c #18A6EF",
"%. c #1AA9F3",
"&. c #1BAEFB",
"*. c #1EB1FF",
"=. c #24B3FF",
"-. c #2CB5FF",
";. c #34B7FF",
":. c #36B9FF",
">. c #3CBAFF",
",. c #43BCFF",
"<. c #4BBEFF",
"1. c #4BC1FF",
"2. c #53C1FF",
"3. c #5CC4FF",
"4. c #64C6FF",
"5. c #68C7FF",
"6. c #6DC9FF",
"7. c #74CBFF",
"8. c #7DCEFF",
"9. c #96A8B3",
"0. c #DA9E9D",
"q. c #DDA7A8",
"w. c #DEA9A9",
"e. c #95D588",
"r. c #8BC2A7",
"t. c #8CC3A8",
"y. c #ABC1BC",
"u. c #ABBAC2",
"i. c #B1BED0",
"p. c #B8BFD1",
"a. c #B1C2C3",
"s. c #B4C1C9",
"d. c #B1C2D5",
"f. c #BBC1D3",
"g. c #B3C5DA",
"h. c #B8CBDF",
"j. c #80CFFF",
"k. c #84D1FF",
"l. c #8AD2FF",
"z. c #92D5FB",
"x. c #C0C4D4",
"c. c #C1DFD0",
"v. c #CCD7E4",
"b. c #CEDAE7",
"n. c #D7DDE6",
"m. c #E5EAEC",
"M. c #FCE9E4",
"N. c #F5E8E8",
"B. c #F8E9E8",
"V. c None",
/* pixels */
"V.V.V.V.V.z.l.8.7.7.5.3.<.<.,.;.+.+ X X X X @ s.V.V.V.V.V.V.V.V.",
"V.V.V.V.V.l.k.k.7.6.5.3.<.<.,.>.+.O X o o X @ s.V.V.V.V.V.V.V.V.",
"V.V.V.V.V.l.k.8.7.6.4.3.3.<.,.>.+.+ ] u.u.] # s.V.V.V.V.V.V.V.V.",
"V.V.V.V.V.k.j.8.7.5.4.4.<.<.,.;.+.@ 9.m.m.9.# a.V.V.V.V.V.V.V.V.",
"V.V.V.V.V.k.8.7.6.5.3.<.<.,.>.:.+.+ $ & & $ # i.V.V.V.V.V.V.V.V.",
"V.V.V.V.V.8.7.7.5.4.3.<.<.,.>.-.O.+ X X X X @ a.V.V.V.V.V.V.V.V.",
"V.V.V.V.V.7.7.5.5.3.3.<.,.>.:.-.O.+ X X X X @ i.V.V.V.V.V.V.V.V.",
"V.V.V.V.V.7.5.4.3.3.<.<.,.>.-.-.o.+ X X X X @ a.e.V.J           ",
"V.V.V.V.V.5.4.3.3.2.<.,.>.:.-.=.o.+ X X X X @ a.) W K . P P .   ",
"V.V.V.V.V.3.3.2.<.<.,.>.:.-.=.*. .+ X X X X @ y.) W I t.c.c.t.. ",
"V.V.V.V.V.4.3.3.3.2.1.,.>.>.-.&. .O X X X X @ y.) E I t.c.c.t.. ",
"M.M.M.M.N.n.b.v.f.f.f.p.d.f.z.*.} O X X X X # y.( E J . P P .   ",
"/ / / ^ H H G D 6 1 1 1 1 9 h.=.} O X X X X @ y.( R J           ",
"S S S Z A Z C m ; 2 7 4 2 3 g.*.} O X X X X @ y.~ R K           ",
"Z Z Z Z Z V V n < w.B.N.q.8 g.*.} + X X X X # y.~ T K           ",
"C C V V V V B n , F 0.0.F 7 g.&.} O X X X X @ y.~ T K           ",
"V B B B B B m v , * * * * 3 g.&.{ O X X X X @ y.! T J           ",
"B B B N N N m v ; * * * * 3 d.&.{ O X X X X @ y.! Y J           ",
"N N M M n n b k ; * * * * 3 d.%.{ O X X X X @ y.! U             ",
"M b b b b b v l - * * * * 3 d.$.[ + X X X X @ y.! U J           ",
"z b z z z z z j - * * * * 3 d.#.[ O X X X X @ y.! U J           ",
"z z z z k k k g = * * * * 3 d.#.[ O X X X X @ y.Q Y J           ",
"k k k k j j j s - * * * * 3 d.@.` O X X X X # y.Q U J           ",
"h j h h h h f s = * * * * 3 d.@.` O X X X X @ y.Q U J           ",
"f f f h d d d i = * * * * 3 d.X._ O X X X X @ y.Q U J           ",
"d d d d a a a i = * = * * 3 d..._ O X X X X @ y.Q U J           ",
"p p i i i i i t = * * * * 3 i..._ + X X X X @ y.Q U             ",
"y i i y y t r e = * * * * 3 i..._ + X X X X o y.Q U J           ",
"r e e e r e e w = * * * * 3 u.| _ X O X X X @ y.Q U J           ",
"w e w w w w q > = * * * * 3 d.| _ X X X X X @ y.Q Y J           ",
"q q q q q q 0 : * * * * * 3 i.| _ X X X X X @ y.Q U J           ",
"0 0 0 0 0 : : : * * * * * 3 d.| _ O X X X X @ y.Q U J           "
};
